<svg xmlns="http://www.w3.org/2000/svg" viewBox="0 0 71.37 69.19"><path d="M25.49 22.51a3.14 3.14 0 0 0-3.21 2c-.08.17-.16.45-.38.45a5.15 5.15 0 0 0-.09-1.29c-.29-1.26-.11-1.73.08-2s.47-2 .69-2.13a.24.24 0 0 0-.27-.21c-.24 0-.54-.33-.54-.33s.23 2.41-.85 3.42c-.71.65-2.93 1.78-3.27 4.65a5.41 5.41 0 0 0 3.64-4 10 10 0 0 1 .18 2.08 9 9 0 0 0-.83.64c-.6.52-.44.67.49.7h.15a2.83 2.83 0 0 1-.31.71C20 28.57 18.17 29 18 32.53c0 0 1.38-.34 2.78-2.63a9.32 9.32 0 0 0-1.12 3.72 5 5 0 0 0 .46 2.23 6.3 6.3 0 0 0 1.51-5.45s.42 2.77 2.78 3.51a5.37 5.37 0 0 0-.5-3c-.76-1.55-2-1.73-2.16-2.93a7.4 7.4 0 0 1 0-1.47c.87 0 1.26.1 1.63.48.73.76 1.49 1 1.85 1.65.72 1.45.31 3.47 1.05 5.94.85 2.83 4.59 5.42 7.83 6.46 0 .76 1.18 2.15 1.57 2.62s0 .77-.18.93-.18.36-.24.5-.47.8-.92.78c-.29 0-1.25-.25-1.73.18a2.43 2.43 0 0 0-.4.5h-2.65c-.56 0-.82.24-.68.74 0 0 .43.38 0 1.1-.1.34 0 .57.23.67l.18.07c.11.06.21.15.08.37h-.11c-.37 0-.39.28-.39.64V55c0 .33.14.43.36.44 0 .21-.11.23-.23.27h-.14c-.36 0-.56.33-.56.71v.05a1.26 1.26 0 0 1 0 1.31c0 .4.2.71.56.71h13.7c.36 0 .56-.31.56-.71a1.21 1.21 0 0 1 0-1.31v-.05c0-.38-.2-.71-.56-.71a.31.31 0 0 1-.24-.3c.25 0 .43 0 .43-.4V50.2c0-.36 0-.64-.39-.64h-.29c-.14-.24 0-.35.09-.41h.12a.47.47 0 0 0 .25-.68.85.85 0 0 1 0-1.1c.13-.5 0-.74-.68-.74h-2a3.94 3.94 0 0 0-.44-.55c-.39-.44-1.3-.08-1.58 0s-.69-.32-.8-.65.8-1.12.8-1.12c1.05-.28.75-2.53.75-2.53a20.49 20.49 0 0 0 3.78-.1 59.68 59.68 0 0 0 4.12 4.55c1.42 1.33 2.37.78 2.37.78a1.3 1.3 0 0 0 1.56-.43.92.92 0 0 0 1.18-.93 3 3 0 0 1 .23-1 1 1 0 0 0-.03-1.65c.85-1.52-6.24-4.69-6.82-5.19a2.14 2.14 0 0 1-.65-.86.43.43 0 0 1 .25-.4 1.49 1.49 0 0 0 .57-1.8c1.38-1.48.41-2.56.41-2.56a1.22 1.22 0 0 0 .45-1.47 1.91 1.91 0 0 0 1.08-1.81c2.71-1.32 2-2.07 2-2.07C51 26 51 24.74 51 24.74c2-.93 1.84-1.87 1.84-1.87 2.9-1.61 1.79-2 1.79-2 .9-.53.69-1.2.69-1.2.68-.94.53-1-.21-1.13a35.15 35.15 0 0 0-4.68.47c-.58.09-2.79.4-3.78.68s-.61-.21-.61-.21a1.46 1.46 0 0 0 .62-1.42c1.22-1.29.56-1.78.56-1.78a1.24 1.24 0 0 0 .49-1.59.9.9 0 0 0 .05-1.24c0-1.18-.57-.77-.57-.77s-.44.47-4.6 2.49c-7 3.38-9.91 5.92-10.58 7.92a5.78 5.78 0 0 0 .08 4.32c.34.68.37 1.62-.61.88a15.41 15.41 0 0 1-2.88-3.2c-.54-.76-1.08-2.38-3.09-2.58m-1 2.35a.37.37 0 1 1 0-.74.37.37 0 0 1 0 .74" style="fill:#5571aa"/><path d="M66.46 40.73c1.07-2.59 4.78-3.42 4.78-3.42-.4 4.1-2.68 5-4.82 6-1.2.6-4.23 5.55-4.23 5.55A8.51 8.51 0 0 1 69 45.41c-.55 2.45-2.64 4-6.23 4.67-2 .36-5.25 4.55-5.25 4.55 2.28-2.48 6.65-1.51 6.65-1.51-2.88 4.59-6.42 2.51-7.65 2.87a21.18 21.18 0 0 0-4.32 2.28 9.41 9.41 0 0 1 6.07 1c-3.4 3.17-7 1.07-8.71.6C49 59.7 43 61.78 43 61.78c3.73-1.39 7.85 2 7.85 2a5.76 5.76 0 0 1-6.14 0c-1.27-.7-2.16-1.45-3.86-1.57a8.84 8.84 0 0 0-4 .81 64.14 64.14 0 0 1 6.88 3.91s.53.39-.09.75c-1.09.67-1.27 1.41-1.15 1.53a28.12 28.12 0 0 0-6.82-5.61 28.28 28.28 0 0 0-6.83 5.61c.12-.12-.05-.86-1.14-1.53-.63-.36-.1-.75-.1-.75A64.14 64.14 0 0 1 34.49 63a8.74 8.74 0 0 0-4-.81c-1.71.12-2.6.87-3.87 1.57a5.76 5.76 0 0 1-6.14 0s4.12-3.37 7.84-2c0 0-5.95-2.08-6.57-1.9-1.72.47-5.31 2.57-8.71-.6a9.41 9.41 0 0 1 6.07-1A21.18 21.18 0 0 0 14.8 56c-1.23-.36-4.77 1.72-7.65-2.87 0 0 4.36-1 6.65 1.51 0 0-3.26-4.19-5.25-4.55-3.55-.67-5.69-2.23-6.23-4.68a8.51 8.51 0 0 1 6.85 3.5s-3-4.95-4.23-5.55c-2.14-1.07-4.42-2-4.82-6 0 0 3.71.83 4.77 3.42 0 0-.19-4.06-1-4.72S-.6 34.33.09 29.08a7 7 0 0 1 4.07 5.35 20 20 0 0 1-.28-5.26 2.2 2.2 0 0 0-.63-1.48 11.94 11.94 0 0 1-1.53-2.25 5.56 5.56 0 0 1 .15-5.16s2.93 3 2.49 5.92c0 0 1.3-4.27 1-5.64s-2-4.44.35-7.73c0 0 2.1 3.67 1 6.39a11.42 11.42 0 0 1 2.19-4c1.14-1.18.24-2.72.2-3.59a5.63 5.63 0 0 1 2-5.23 8 8 0 0 1-.11 6 33.58 33.58 0 0 1 3-3.2c.91-.77.91-2 1-3.07a5.56 5.56 0 0 1 3.56-4.68s.14 3.49-1.42 5.22A3.55 3.55 0 0 0 19.28 5c1.12-1.45 1.39-3.95 4.59-5 0 0-.29 2.81-1.7 3.91.47-.4 2.57-1.81 7.3 0 0 0-3.7 1.78-6 1.35A3.62 3.62 0 0 1 26 6.85a6.06 6.06 0 0 1-4.49-.2c-2.13-1-4.09.09-5.54 1.84a6.61 6.61 0 0 1 6.93-.22 8.54 8.54 0 0 1-3.9 1.84c-2 .26-2.7-.44-3.63-.35a5.05 5.05 0 0 0-1.29.57 7.77 7.77 0 0 0-3.22 3.57s2.52-3.84 6.92-2.54c0 0-.9 3-6.37 3.76-2.68.35-3.86 3.81-3.86 3.81a7.81 7.81 0 0 1 5.81-2.5A7.4 7.4 0 0 1 10 20.34c-2.6 1.33-4.16 1.36-4.75 5.25a6.48 6.48 0 0 1 5-3.71 8 8 0 0 1-2.14 4.42c-1 .89-2 1.33-2.74 2.3a5.13 5.13 0 0 0-.62 4.14 6.71 6.71 0 0 1 3.71-4.65s.42 3.23-.9 5.21-3 2.12-2 7A6.49 6.49 0 0 1 8 34.43a7.27 7.27 0 0 1 .41 4.76c-.62 2.34-2.64 3.88.44 7.62 0 0-1.45-2.69.86-6.28a9 9 0 0 1 1.51 4.09c-.07 2.57-1 3.66-.07 5.5a7.83 7.83 0 0 0 2.37 2.93 6.65 6.65 0 0 1-.86-6.41 7.48 7.48 0 0 1 2.64 3.7c.56 2.19.25 3.4 1.21 4.79a5.08 5.08 0 0 0 3.35 2.31 6.65 6.65 0 0 1-2.22-6.17 16 16 0 0 1 1.5 1.06 6.08 6.08 0 0 1 2.68 4.76c.18 2.11 4.39 3.27 4.39 3.27a7 7 0 0 1-3.5-5.15 7.66 7.66 0 0 1 4.39 2.54c1.22 1.72 2.44 3.61 4.1 3.76a17.85 17.85 0 0 1 4.47 1 17.85 17.85 0 0 1 4.47-1c1.66-.15 2.88-2 4.1-3.76a7.66 7.66 0 0 1 4.39-2.54 6.93 6.93 0 0 1-3.5 5.15s4.21-1.16 4.39-3.27a6.08 6.08 0 0 1 2.68-4.76 15.17 15.17 0 0 1 1.51-1.06 6.67 6.67 0 0 1-2.23 6.17 5.12 5.12 0 0 0 3.36-2.31c1-1.39.65-2.6 1.2-4.79a7.55 7.55 0 0 1 2.64-3.7 6.65 6.65 0 0 1-.86 6.41 7.64 7.64 0 0 0 2.36-2.93c1-1.84 0-2.93-.06-5.5-.05-1.79 1.51-4.09 1.51-4.09 2.32 3.59.86 6.28.86 6.28 3.09-3.74 1.06-5.28.44-7.62a7.34 7.34 0 0 1 .41-4.76 6.52 6.52 0 0 1 2.44 5.9c1.06-4.91-.67-5-2-7s-.89-5.21-.89-5.21a6.7 6.7 0 0 1 3.7 4.65A5.1 5.1 0 0 0 66 28.6c-.7-1-1.74-1.41-2.74-2.3a8.08 8.08 0 0 1-2.13-4.42 6.48 6.48 0 0 1 5 3.71c-.58-3.89-2.15-3.92-4.74-5.25A7.4 7.4 0 0 1 58 16.43a7.78 7.78 0 0 1 5.8 2.5s-1.17-3.46-3.86-3.81c-5.45-.71-6.37-3.76-6.37-3.76 4.4-1.3 6.92 2.54 6.92 2.54a7.75 7.75 0 0 0-3.21-3.57A5.31 5.31 0 0 0 56 9.76c-.93-.08-1.65.61-3.62.35a8.61 8.61 0 0 1-3.91-1.84 6.6 6.6 0 0 1 6.93.22c-1.46-1.75-3.4-2.81-5.56-1.84a6 6 0 0 1-4.48.2 3.62 3.62 0 0 1 2.56-1.62c-2.33.42-6-1.35-6-1.35 4.73-1.78 6.83-.37 7.3 0C47.78 2.81 47.5 0 47.5 0c3.2 1.06 3.5 3.56 4.59 5a3.55 3.55 0 0 0 2.22 1.6c-1.56-1.72-1.41-5.21-1.41-5.21a5.56 5.56 0 0 1 3.56 4.68c0 1.11 0 2.3 1 3.07a33.58 33.58 0 0 1 3 3.2 7.89 7.89 0 0 1-.11-5.95 5.67 5.67 0 0 1 2 5.23c0 .87-1 2.41.18 3.59a11.15 11.15 0 0 1 2.19 4c-1.12-2.71 1-6.38 1-6.38 2.36 3.29.63 6.28.33 7.73s1 5.64 1 5.64c-.44-3 2.49-5.92 2.49-5.92a5.59 5.59 0 0 1 .15 5.16 11.63 11.63 0 0 1-1.53 2.25 2.17 2.17 0 0 0-.63 1.49 20 20 0 0 1-.28 5.26 7 7 0 0 1 4.07-5.36c.68 5.25-2.95 6.19-3.82 6.92s-1 4.72-1 4.72" style="fill:#5571aa"/></svg>