<svg xmlns="http://www.w3.org/2000/svg" xml:space="preserve" width="533.12531" height="526.95605" viewBox="0 0 533.1253 526.95605"><defs><clipPath id="a" clipPathUnits="userSpaceOnUse"><path d="M0 841.89h595.276V0H0Z"/></clipPath></defs><g clip-path="url(#a)" style="stroke:none;stroke-width:.648378" transform="matrix(2.05641 0 0 -2.05641 -320.8 1133.372)"><g style="stroke:none;stroke-width:.648378"><path d="M0 0c0-68.715-56.356-124.418-125.875-124.418S-251.75-68.715-251.75 0s56.356 124.418 125.875 124.418S0 68.715 0 0" style="fill:#d92318;fill-opacity:1;fill-rule:nonzero;stroke:none;stroke-width:.648378" transform="translate(411.5 423.015)"/></g><g style="stroke:none;stroke-width:.648378"><path d="M0 0v19.201a63.5 63.5 0 0 1 28.537 12.06L16.189 43.47C9.21 38.734.845 35.848-8.183 35.525l-1.567-3.699-1.564 3.694a46.24 46.24 0 0 0-24.657 7.974L-48.313 31.28A63.5 63.5 0 0 1-19.75 19.201V0a82.74 82.74 0 0 0-42.258 17.726L-74.43 5.431c15.069-12.577 33.948-20.826 54.68-22.834v-25.398H0v25.398C20.728-15.396 39.603-7.15 54.67 5.422L42.24 17.711A82.74 82.74 0 0 0 0 0m-19.75 162.149v-19.2a63.5 63.5 0 0 1-28.367-11.928l12.387-12.207a46.25 46.25 0 0 0 24.521 7.819l1.459 3.445 1.462-3.452a46.24 46.24 0 0 0 24.084-7.693l12.35 12.259A63.46 63.46 0 0 1 0 142.951v19.199a82.75 82.75 0 0 0 41.818-17.385l12.416 12.326C39.24 169.459 20.528 177.563 0 179.551v25.898h-19.75v-25.898c-20.673-2.002-39.504-10.209-54.551-22.725l12.455-12.276a82.74 82.74 0 0 0 42.096 17.599m-72.164-90.7h19.42c1.637-10.469 5.887-20.084 12.083-28.167l12.345 12.254c-4.719 6.881-7.59 15.101-7.894 23.969l-3.416 1.447 3.409 1.444a45 45 0 0 0 8.057 24.453l-12.348 12.21c-6.18-7.995-10.453-17.501-12.16-27.86h-19.439c1.953 15.591 8.343 29.819 17.894 41.409l-12.428 12.289c-12.656-14.808-20.977-33.342-23.072-53.698h-25.787v-19.75h25.73c2.002-20.493 10.321-39.159 23.018-54.068l12.411 12.321c-9.58 11.685-15.952 26.034-17.823 41.747m181.627 19.75c-2.099 20.394-10.447 38.96-23.143 53.782l-12.421-12.293c9.586-11.605 16.001-25.863 17.958-41.489H52.668c-1.712 10.39-6.008 19.922-12.217 27.932L28.11 106.917a45 45 0 0 0 8.104-24.414l3.662-1.551-3.669-1.554c-.321-8.786-3.164-16.932-7.825-23.767l12.389-12.21c6.138 8.054 10.348 17.619 11.973 28.028h19.42c-1.86-15.627-8.176-29.903-17.669-41.553l12.46-12.279C79.538 32.486 87.777 51.064 89.77 71.449h25.73v19.75z" style="fill:#0e823c;fill-opacity:1;fill-rule:nonzero;stroke:none;stroke-width:.648378" transform="translate(295.5 341.94)"/></g><g style="stroke:none;stroke-width:.648378"><path d="M0 0c-8.906 0-16.125 7.136-16.125 15.938 0 8.803 7.219 15.938 16.125 15.938s16.125-7.135 16.125-15.938C16.125 7.136 8.905 0 0 0m19.647-.694c3.879 4.472 6.228 10.279 6.228 16.632 0 6.398-2.383 12.243-6.312 16.728l1.712 4.228-4.237-1.716A25.94 25.94 0 0 1 0 41.514a25.94 25.94 0 0 1-16.955-6.265l-4.061 1.645 1.63-4.025c-4.036-4.511-6.489-10.436-6.489-16.931s2.454-12.421 6.49-16.932l-1.631-4.028 4.065 1.646A25.94 25.94 0 0 1 0-9.638a25.94 25.94 0 0 1 17.074 6.367L21.4-5.022Z" style="fill:#f2c11d;fill-opacity:1;fill-rule:nonzero;stroke:none;stroke-width:.648378" transform="translate(285.625 407.077)"/></g><g style="stroke:none;stroke-width:.648378"><path d="M0 0c-66.758 0-120.875 53.491-120.875 119.477 0 65.985 54.117 119.476 120.875 119.476s120.875-53.491 120.875-119.476C120.875 53.491 66.758 0 0 0m0 247.602c-71.59 0-129.625-57.364-129.625-128.125C-129.625 48.715-71.59-8.648 0-8.648s129.625 57.363 129.625 128.125c0 70.761-58.035 128.125-129.625 128.125" style="fill:#231916;fill-opacity:1;fill-rule:nonzero;stroke:none;stroke-width:.648378" transform="translate(285.625 303.538)"/></g></g></svg>