<svg xmlns="http://www.w3.org/2000/svg" xml:space="preserve" x="0px" y="0px" viewBox="0 0 398 398"><circle cx="199" cy="199" r="197" fill="#FFF"/><circle cx="199" cy="199" r="142" fill="#00ABD4"/><g fill="#757575"><path d="M107.938 342.187c-3.178 4.64-7.627 5.683-10.866 3.467-1.601-1.096-2.272-2.805-2.407-4.289l2.077-.68c.145 1.208.589 2.278 1.633 2.993 2.211 1.513 5.147.512 7.438-2.832 2.318-3.383 2.308-6.429.044-7.979-1.166-.798-2.468-.838-3.87-.434l-.113-2.15c1.928-.612 3.737-.453 5.391.68 3.22 2.204 3.865 6.564.673 11.224zM90.262 340.367l-1.889-1.554 4.468-5.428-5.13-4.22-4.467 5.429-1.888-1.555 10.96-13.32 1.89 1.554-4.99 6.063 5.129 4.22 4.989-6.062 1.889 1.554-10.961 13.32zM83.539 311.267l-2.37 7.431 1.791 1.76 4.881-4.963 1.745 1.715-12.095 12.298-3.626-3.564c-2.286-2.247-3.114-4.835-.501-7.492 1.873-1.904 3.908-2.139 5.784-1.248l2.42-7.875 1.97 1.938zm-2.107 10.745-1.67-1.642c-1.61-1.582-3.205-1.704-4.668-.218-1.463 1.488-1.1 2.864.51 4.446l1.67 1.64 4.158-4.226zM67.244 319.06l-1.635-1.819 12.825-11.533 1.635 1.82-12.825 11.533zM74.836 305.099l-2.36.05c.273-1.649-.053-3.334-.988-4.503-1.172-1.467-2.6-1.676-3.735-.769-1.227.98-.953 2.111-.607 3.67l.538 2.326c.386 1.61.4 3.73-1.558 5.296-2.125 1.697-5.06 1.29-6.904-1.018-1.133-1.417-1.54-3.278-1.234-5.035l2.158-.078c-.145 1.358.07 2.565.925 3.636.988 1.235 2.292 1.516 3.372.653 1.154-.922.816-2.245.466-3.586l-.543-2.293c-.468-1.975-.309-3.803 1.669-5.384 2.16-1.727 5.209-1.516 7.329 1.137 1.33 1.664 1.835 3.799 1.472 5.898zM54.317 299.207l2.57 3.76-1.876 1.284-6.534-9.559 1.877-1.283 2.583 3.779 12.363-8.455 1.38 2.02-12.363 8.454zM46.734 291.73l-1.26-2.096 14.79-8.884 1.26 2.098-14.79 8.882zM50.625 273.384l2.5 4.785 4.976-1.102 1.152 2.206-17.667 3.424-1.309-2.505 12.902-12.545 1.201 2.3-3.755 3.437zm-1.617 1.51-1.773 1.616c-1.417 1.336-2.905 2.636-4.404 3.967l.04.075c1.949-.52 3.856-.968 5.751-1.388l2.35-.513-1.964-3.757zM36.573 272.731l-.964-2.317 7.37-8.64 2.751-2.903-.04-.098c-1.596.801-3.449 1.778-5.18 2.498l-7.421 3.088-.891-2.141 15.925-6.626.963 2.316-7.413 8.658-2.708 2.886.04.098c1.596-.802 3.363-1.742 5.094-2.462l7.507-3.124.892 2.141-15.925 6.626zM37.367 250.81c-5.416 1.516-9.509-.58-10.618-4.54-.592-2.113.047-3.825.852-5.036l2.029.812c-.63.965-1.029 2.062-.625 3.504.78 2.782 3.69 3.96 7.595 2.868 3.949-1.106 5.902-3.427 5.037-6.514-.256-.914-.805-1.745-1.472-2.128l-3.904 1.093.83 2.965-2.143.6-1.429-5.097 7.2-2.016c1.384.686 2.691 2.138 3.266 4.19 1.121 4-1.18 7.776-6.618 9.299zM33.258 236.192c-5.464.995-9.232-1.128-9.944-5.05-.712-3.922 2.064-7.257 7.528-8.251 5.465-.995 9.351 1.128 10.064 5.05s-2.183 7.257-7.648 8.251zm-1.967-10.833c-3.989.727-6.108 2.828-5.648 5.359.46 2.532 3.178 3.731 7.167 3.005 3.988-.726 6.227-2.827 5.767-5.359-.46-2.532-3.297-3.73-7.286-3.005zM36.992 219.775l-2-1.253c1.133-1.228 1.786-2.814 1.647-4.305-.174-1.868-1.251-2.827-2.698-2.692-1.563.147-1.955 1.243-2.522 2.736l-.828 2.237c-.56 1.557-1.713 3.337-4.21 3.57-2.706.253-4.935-1.698-5.208-4.637-.168-1.806.514-3.585 1.734-4.886l1.846 1.12c-.867 1.055-1.35 2.18-1.224 3.545.147 1.575 1.082 2.525 2.459 2.396 1.47-.137 1.914-1.428 2.357-2.74l.806-2.215c.693-1.907 1.83-3.348 4.35-3.584 2.753-.257 5.184 1.591 5.499 4.971.197 2.121-.553 4.182-2.008 5.737zM20.842 206.269l-.074-4.703c-.056-3.459 1.218-5.947 5.108-6.01 3.774-.062 5.547 2.377 5.601 5.752l.038 2.34 6.539-.106.038 2.445-17.25.282zm8.46-4.695c-.04-2.488-1.114-3.652-3.387-3.615s-3.003 1.336-2.964 3.804l.032 2.024 6.352-.103-.034-2.11zM20.848 191.598l.59-9.153 2.27.146-.434 6.713 4.795.31.367-5.682 2.293.148-.367 5.682 5.567.36.448-6.945 2.292.148-.605 9.385-17.216-1.112zM21.94 177.989l.337-2.423 14.807 2.063.907-6.496 2.275.317-1.245 8.92-17.082-2.381zM24.853 160.22l.71-2.713 9.156-.546c1.202-.056 2.416-.065 3.64-.115l.027-.102c-1.043-.643-2.102-1.226-3.122-1.864l-7.725-4.921.716-2.733 16.688 4.368-.576 2.203-8.254-2.16c-1.496-.392-3.602-1.14-5.09-1.66l-.021.082 3.54 2.212 7.275 4.695-.385 1.47-8.647.548-4.165.174-.021.081c1.546.296 3.748.677 5.244 1.068l8.254 2.16-.555 2.122-16.689-4.368zM29.908 142.46l.79-2.314 16.319 5.581-.791 2.315-16.318-5.582zM45.804 142.27l-1.192-2.038c1.574-.564 2.887-1.667 3.454-3.052.712-1.737.2-3.086-1.145-3.637-1.453-.595-2.309.195-3.504 1.255l-1.77 1.6c-1.218 1.12-3.065 2.164-5.387 1.214-2.517-1.03-3.59-3.794-2.47-6.526.688-1.678 2.117-2.94 3.801-3.526l1.118 1.848c-1.257.533-2.208 1.306-2.727 2.575-.6 1.464-.21 2.74 1.07 3.264 1.367.56 2.36-.38 3.36-1.337l1.74-1.59c1.499-1.368 3.174-2.118 5.517-1.16 2.561 1.048 3.86 3.814 2.573 6.956-.807 1.97-2.427 3.45-4.438 4.154zM50.516 130.896l-1.034-2.122c1.612-.443 3.004-1.444 3.674-2.783.841-1.679.433-3.062-.865-3.713-1.404-.704-2.316.019-3.587.987l-1.885 1.462c-1.3 1.023-3.219 1.925-5.46.802-2.43-1.217-3.29-4.054-1.968-6.695.813-1.622 2.332-2.772 4.055-3.23l.974 1.928c-1.294.437-2.299 1.136-2.913 2.363-.708 1.414-.417 2.716.82 3.335 1.319.662 2.379-.2 3.449-1.079l1.855-1.453c1.597-1.253 3.323-1.874 5.585-.74 2.472 1.239 3.558 4.095 2.037 7.131-.953 1.905-2.68 3.258-4.737 3.807zM43.867 111.139l1.221-2.12 14.948 8.613-1.221 2.12-14.948-8.613zM54.209 110.195c-4.615-3.096-5.84-7.245-3.62-10.556 2.22-3.31 6.536-3.768 11.15-.673s5.927 7.328 3.706 10.639c-2.22 3.31-6.622 3.686-11.236.59zm6.133-9.144c-3.369-2.26-6.353-2.23-7.786-.093-1.434 2.137-.318 4.893 3.05 7.152 3.37 2.26 6.439 2.313 7.873.176 1.433-2.138.231-4.975-3.137-7.235zM57.346 90.642l1.59-1.944 11.095 2.424 3.858 1.057.067-.082c-1.46-1.03-3.194-2.202-4.645-3.389l-6.224-5.087 1.47-1.796L77.908 92.74l-1.589 1.943-11.132-2.454-3.821-1.026-.067.081c1.459 1.03 3.12 2.143 4.573 3.33l6.295 5.146-1.469 1.797-13.353-10.916zM324.776 85.118c4.292-3.637 8.859-3.47 11.396-.48 1.255 1.48 1.45 3.305 1.188 4.771l-2.183.108c.18-1.202.035-2.35-.783-3.316-1.733-2.042-4.83-1.851-7.923.77-3.13 2.652-3.925 5.592-2.152 7.682.914 1.078 2.16 1.46 3.62 1.44l-.46 2.103c-2.022.082-3.724-.549-5.02-2.077-2.523-2.975-1.993-7.35 2.317-11.001zM341.366 91.564l1.412 1.999-5.744 4.056 3.835 5.426 5.745-4.056 1.412 1.999-14.093 9.95-1.413-1.999 6.416-4.528-3.836-5.427-6.415 4.53-1.414-2 14.095-9.95zM340.15 121.407l4.25-6.54-1.26-2.17-6.018 3.494-1.228-2.115 14.914-8.659 2.551 4.395c1.61 2.771 1.723 5.486-1.499 7.356-2.31 1.341-4.334 1.03-5.906-.326l-4.416 6.953-1.388-2.388zm4.874-9.803 1.176 2.023c1.133 1.952 2.639 2.491 4.443 1.444s1.817-2.469.684-4.42l-1.176-2.024-5.127 2.977zM357.91 118.171l1.095 2.188-15.42 7.726-1.096-2.187 15.42-7.727zM346.902 129.644l2.287.578c-.7 1.517-.833 3.226-.243 4.602.74 1.725 2.06 2.305 3.396 1.732 1.442-.62 1.478-1.783 1.56-3.378l.098-2.383c.056-1.653.604-3.702 2.908-4.691 2.497-1.073 5.219.1 6.383 2.812.715 1.667.614 3.569-.147 5.181l-2.101-.497c.5-1.27.614-2.49.073-3.75-.623-1.454-1.805-2.07-3.076-1.525-1.356.583-1.383 1.948-1.4 3.333l-.086 2.355c-.074 2.028-.712 3.748-3.037 4.747-2.54 1.09-5.422.08-6.761-3.04-.84-1.958-.76-4.15.146-6.076zM365.111 140.767l-1.476-4.311 2.15-.738 3.754 10.958-2.151.737-1.484-4.331-14.167 4.856-.793-2.316 14.167-4.855zM370.44 150.036l.655 2.358-16.621 4.615-.655-2.357 16.621-4.616zM361.8 166.68l-1.133-5.28-5.092-.268-.522-2.435L373 160.115l.593 2.764-15.79 8.65-.543-2.537 4.539-2.311zm1.96-1.024 2.141-1.085c1.724-.908 3.505-1.765 5.306-2.648l-.018-.082c-2.018-.02-3.976-.097-5.916-.2l-2.4-.132.888 4.147zM375.158 171.057l.31 2.49-9.408 6.361-3.427 2.065.013.104c1.751-.346 3.797-.792 5.658-1.024l7.976-.994.287 2.302-17.115 2.134-.31-2.491 9.456-6.366 3.38-2.059-.013-.104c-1.752.345-3.705.78-5.566 1.012l-8.069 1.006-.287-2.303 17.115-2.133zM368.475 191.792c5.625-.092 9.048 2.975 9.115 7.086.034 2.193-1.02 3.687-2.107 4.654l-1.755-1.3c.855-.773 1.52-1.733 1.496-3.23-.046-2.89-2.562-4.768-6.617-4.702-4.101.067-6.582 1.815-6.53 5.02.015.95.335 1.894.882 2.433l4.055-.065-.05-3.08 2.227-.036.085 5.293-7.476.122c-1.165-1.014-2.06-2.75-2.095-4.88-.065-4.155 3.121-7.223 8.77-7.315zM368.635 207.138c5.533.481 8.608 3.522 8.262 7.493-.346 3.97-3.903 6.456-9.436 5.975-5.532-.481-8.723-3.552-8.377-7.524.347-3.97 4.019-6.425 9.55-5.944zm-.955 10.968c4.038.351 6.636-1.117 6.86-3.68.223-2.564-2.084-4.437-6.123-4.787-4.04-.352-6.751 1.085-6.975 3.648s2.199 4.468 6.238 4.82zM360.714 221.976l1.598 1.736c-1.416.888-2.463 2.246-2.723 3.722-.324 1.85.463 3.058 1.894 3.31 1.547.27 2.214-.684 3.155-1.976l1.387-1.942c.953-1.354 2.534-2.77 5.003-2.337 2.678.469 4.315 2.94 3.804 5.85-.313 1.788-1.44 3.325-2.96 4.259l-1.485-1.567c1.114-.79 1.877-1.749 2.114-3.1.273-1.559-.379-2.723-1.741-2.961-1.454-.255-2.224.874-2.997 2.024l-1.36 1.925c-1.173 1.66-2.65 2.75-5.142 2.312-2.724-.476-4.583-2.9-3.996-6.247.368-2.1 1.634-3.891 3.449-5.008zM372.747 239.278l-1.18 4.553c-.87 3.349-2.76 5.407-6.526 4.43-3.653-.948-4.713-3.774-3.865-7.04l.588-2.266-6.331-1.643.614-2.369 16.7 4.335zm-9.403 2.266c-.625 2.41.1 3.817 2.3 4.389s3.25-.486 3.87-2.874l.508-1.96-6.149-1.596-.53 2.041zM368.832 253.448l-3.007 8.67-2.147-.747 2.205-6.356-4.54-1.577-1.865 5.38-2.17-.754 1.866-5.38-5.27-1.83-2.281 6.576-2.169-.753 3.082-8.889 16.296 5.66zM364.174 266.244l-.972 2.246-13.726-5.938-2.606 6.022-2.108-.912 3.577-8.268 15.835 6.85zM356.588 282.64l-1.411 2.425-8.97-1.92c-1.173-.268-2.345-.583-3.539-.862l-.053.091c.833.9 1.698 1.743 2.511 2.63l6.127 6.808-1.421 2.443-14.914-8.67 1.145-1.969 7.376 4.287c1.338.778 3.167 2.06 4.461 2.96l.043-.073-2.819-3.078-5.755-6.469.763-1.313 8.481 1.783 4.06.944.042-.072c-1.41-.698-3.43-1.653-4.769-2.43l-7.376-4.289 1.104-1.896 14.914 8.67zM346.998 298.393l-1.379 2.021-14.252-9.726 1.38-2.021 14.251 9.726zM331.633 294.313l.607 2.28c-1.667.127-3.225.842-4.141 2.027-1.148 1.485-1.013 2.921.137 3.809 1.243.959 2.278.425 3.711-.282l2.132-1.072c1.472-.756 3.53-1.273 5.515.258 2.152 1.66 2.45 4.608.646 6.945-1.108 1.436-2.821 2.273-4.6 2.392l-.587-2.077c1.353-.182 2.475-.675 3.313-1.76.967-1.252.93-2.585-.164-3.43-1.169-.901-2.375-.26-3.594.398l-2.1 1.07c-1.808.923-3.622 1.202-5.626-.344-2.19-1.688-2.707-4.699-.631-7.386 1.302-1.686 3.256-2.683 5.382-2.828zM324.05 304.054l.435 2.32c-1.67.001-3.278.598-4.279 1.711-1.255 1.396-1.227 2.839-.147 3.81 1.168 1.05 2.238.595 3.72-.001l2.204-.91c1.524-.644 3.614-1.005 5.478.671 2.021 1.818 2.1 4.78.126 6.977-1.213 1.35-2.982 2.055-4.765 2.04l-.43-2.116c1.364-.08 2.518-.488 3.435-1.507 1.057-1.176 1.12-2.509.093-3.434-1.098-.987-2.349-.437-3.612.127l-2.173.911c-1.872.784-3.701.927-5.583-.765-2.057-1.85-2.348-4.89-.077-7.416 1.423-1.585 3.446-2.433 5.575-2.418zM325.234 324.85l-1.74 1.72-12.129-12.263 1.74-1.721 12.13 12.264zM315.016 323.022c3.63 4.203 3.715 8.528.699 11.134-3.017 2.608-7.299 1.91-10.93-2.292s-3.775-8.629-.76-11.236c3.017-2.607 7.36-1.808 10.99 2.394zm-8.331 7.2c2.65 3.068 5.536 3.827 7.483 2.144 1.947-1.683 1.6-4.635-1.05-7.702s-5.597-3.928-7.545-2.245-1.539 4.736 1.112 7.804zM306.836 341.056l-2.047 1.454-10.062-5.27-3.443-2.04-.086.062c1.135 1.378 2.5 2.968 3.585 4.497l4.658 6.553-1.891 1.343-9.995-14.06 2.046-1.454 10.09 5.308 3.415 2.001.086-.06c-1.135-1.38-2.444-2.893-3.53-4.421l-4.713-6.63 1.892-1.344 9.995 14.06z"/></g><g fill="#757575"><path d="m137.944 360.543 2.126-1.168c.536 1.632 1.634 3.01 3.041 3.631 1.765.779 3.165.29 3.767-1.076.65-1.476-.137-2.376-1.194-3.632l-1.595-1.861c-1.117-1.282-2.14-3.207-1.1-5.565 1.127-2.556 3.994-3.581 6.77-2.357 1.706.752 2.963 2.254 3.52 4l-1.929 1.097c-.514-1.306-1.282-2.303-2.571-2.871-1.487-.656-2.81-.291-3.382 1.009-.612 1.388.325 2.433 1.282 3.486l1.585 1.83c1.365 1.577 2.09 3.318 1.041 5.697-1.146 2.6-4.021 3.86-7.214 2.45-2.003-.882-3.478-2.585-4.147-4.67zM156.831 351.709l2.373.832-5.869 16.722-2.372-.832 5.868-16.722zM162.562 353.77l2.5.637 2.56 11.386.69 4.052.105.028c.325-1.807.665-3.93 1.14-5.797l2.038-8.004 2.31.589-4.372 17.173-2.5-.637-2.547-11.432-.703-4.006-.105-.027c-.325 1.806-.64 3.838-1.116 5.704l-2.061 8.096-2.311-.589 4.372-17.172zM175.193 365.956c.768-5.728 4.364-8.746 8.36-8.21 1.977.264 3.383 1.522 4.193 2.821l-1.59 1.585c-.692-1.04-1.593-1.817-2.883-1.99-2.728-.366-4.957 1.912-5.51 6.042-.56 4.177.86 6.967 3.653 7.342 1.439.193 2.652-.374 3.751-1.393l1.099 1.921c-1.485 1.454-3.218 2.145-5.26 1.871-3.974-.532-6.583-4.235-5.813-9.989zM190.405 358.795l9.425.27-.068 2.336-6.912-.2-.143 4.935 5.85.168-.068 2.359-5.85-.17-.166 5.73 7.15.206-.068 2.358-9.664-.279.514-17.713zM208.7 374.099l3.471-.365-1.291-12.26-2.846.3-.184-1.749c1.454-.468 2.467-.986 3.307-1.703l1.876-.198 1.617 15.35 3.104-.327.24 2.275-9.054.951-.24-2.274zM222.22 371.404c.775.652 1.837.978 2.835.774 1.89-.384 3.18-2.417 2.32-7.404-.658 1.437-1.838 2.488-3.027 2.73-2.613.533-4.745-.926-5.484-4.561-.702-3.446.961-6.144 3.489-6.658 2.994-.61 5.963 1.588 7.13 7.323 1.392 6.845-.854 10.153-3.87 10.767-1.806.368-3.243-.175-4.368-1.027l.976-1.945zm4.695-8.674c-.93-3.375-2.414-4.695-4.114-4.35-1.338.273-2.126 1.835-1.665 4.1.45 2.219 1.602 3.312 3.238 2.98.955-.195 1.914-1.03 2.54-2.73zM237.168 355.18l-7.17 2.196-.685-2.234 9.824-3.007.493 1.612c-2.061 6.071-1.478 9.974.305 16.681l-2.445.749c-1.629-6.277-1.868-10.536-.322-15.996zM245.51 363.978c-.895-2.158-.214-4.135.814-5.502l-.046-.111c-1.461-.41-2.85-1.268-3.57-3.002-1.062-2.559.027-4.967 2.448-5.974 2.562-1.064 4.902.05 5.964 2.608.693 1.669.263 3.516-.343 4.655l.046.111c1.671.297 3.359 1.082 4.282 3.306 1.007 2.425-.138 5.092-2.98 6.273-2.762 1.148-5.561.172-6.615-2.364zm3.733-11.019c-.628-1.512-1.92-2.305-3.36-1.706-1.201.498-1.723 1.785-1.113 3.253.738 1.78 2.48 2.02 4.418 2.05.501-1.278.508-2.506.055-3.597zm3.653 7.95c-.831-2.002-2.766-2.085-5.147-2.165-.697 1.203-.89 2.717-.298 4.14.674 1.624 2.365 2.251 3.947 1.595 1.5-.624 2.135-2.035 1.498-3.57z"/></g><g fill="#757575"><path d="M101.16 53.887c4.67 5.901 6.494 12.59 2.976 20.723l-2.509-.94c2.701-6.202 2.153-11.44-1.102-16.285l-6.358 5.03-1.458-1.842 8.451-6.686zm3.604-6.24 15.673 19.81-2.033 1.61-15.674-19.81 2.034-1.61zM139.556 42.106l1.061 2.066-18.272 9.391-1.062-2.065 7.972-4.097-1.202-2.34-5.688 2.924-4.016-7.813 13.771-7.078 1.062 2.065-11.487 5.904 1.892 3.683 11.667-5.996 1.062 2.065-5.935 3.05 1.203 2.339 7.972-4.098zM125.332 54.42l14.062-7.228 3.914 7.614-2.306 1.185-2.852-5.549-11.757 6.043-1.061-2.065zM160.882 27.081l-13.237 3.782-.646-2.259 15.73-4.494.73 2.554c.868 3.039 1.798 6.293 2.368 11.219l-2.585.39c-.493-4.658-1.43-7.939-2.275-10.897l-.085-.295zm8.637 13.005.653 2.285-19.747 5.642-.653-2.285 4.55-1.3-2.244-7.852 2.469-.705 2.243 7.851 2.928-.836-2.244-7.852 2.469-.705 2.243 7.851 7.333-2.094zM196.777 30.262l.195 2.34-20.542 1.714-.195-2.341 8.954-.747-.215-2.592-6.271.523-.793-9.532 2.558-.213.213 2.564 10.083-.84-.213-2.565 2.558-.213.793 9.532-6.32.527.215 2.591 8.98-.748zm-17.863 5.98 15.7-1.31.666 8-2.583.214-.474-5.685-13.117 1.094-.192-2.313zm2.157-9.582 10.083-.84-.206-2.48-10.083.84.206 2.48zM226.008 31.891l-.251 2.28-20.445-2.243.25-2.28 20.446 2.243zm-2.963 4.149-.925 8.395-15.515-1.702.924-8.396 15.516 1.703zm1.542-11.029c-.327 2.975-3.657 4.466-8.587 3.926-4.93-.542-7.856-2.72-7.529-5.694.33-3.002 3.658-4.466 8.587-3.925 4.93.54 7.86 2.691 7.529 5.693zM209.83 36.897l-.421 3.836 10.435 1.145.422-3.836-10.436-1.145zm1.294-13.363c-.181 1.64 1.77 2.783 5.124 3.15 3.353.369 5.48-.326 5.661-1.967.184-1.667-1.742-2.807-5.095-3.175-3.353-.368-5.507.324-5.69 1.992zM245.383 39.982c-2.027-1.695-3.118-4.18-3.266-6.895-1.81 2.392-4.283 3.958-7.117 4.238l-.648-2.55c3.806-.267 6.747-3.064 7.874-6.639l.883-2.8 2.522.794-.9 2.854c-1.026 3.255-.185 6.95 2.645 9.28l-1.993 1.718zm4.701 9.457-.707 2.241-14.624-4.61 2.396-7.602 2.498.788-1.69 5.362 12.127 3.821zm1.344-14.649-4.395-1.385.715-2.267 4.395 1.385 1.707-5.415 2.473.78-5.65 17.925-2.474-.78 3.229-10.243zM276.918 59.852l-1.141 2.085-18.017-9.868 1.14-2.085 4.151 2.274 3.922-7.162 2.253 1.234-3.922 7.162 2.671 1.463 3.922-7.162 2.252 1.234-3.92 7.161 6.689 3.664zm2.993-15.322-12.078-6.614 1.13-2.06 14.35 7.86-1.275 2.33c-1.518 2.772-3.143 5.74-6.2 9.645l-2.113-1.54c2.923-3.66 4.561-6.653 6.039-9.35l.147-.27zM290.699 68.59c1.654 1.199 3.329 2.414 5.013 3.42l-1.209 1.724c-4.454-2.481-8.642-5.869-11.81-8.515l1.272-2.034c1.391 1.16 2.995 2.5 4.69 3.807l1.578-1.89c-1.684-1.988-1.867-4.4-.307-6.268 1.81-2.168 4.75-2.155 7.28-.041 2.513 2.097 3.05 4.987 1.24 7.156-1.577 1.89-3.966 2.118-6.223.816l-1.524 1.824zm1.883-4.258c1.391 1.161 2.966 1.238 3.97.036.986-1.181.63-2.718-.761-3.88-1.41-1.177-2.986-1.254-3.972-.073-1.003 1.203-.647 2.739.763 3.917zM310 60.986l-16.204 19.407-2.01-1.678 16.205-19.407L310 60.986zm-6.75 1.25-10.548-8.808 1.488-1.782 4.288 3.582 1.865-2.233 1.99 1.662-1.864 2.232 4.27 3.566-1.489 1.782z"/></g><path fill="#FFF" d="M88.607 211.2c1.95 1.88 5.768 3.523 11.953-1.812.287-.248.53-.543.724-.869C105.94 200.722 166.708 101.485 209 163v3s30-31 68-28c11 1 20 3 24 15 0 0 7-12-8-21s-64 2-83 27c0 0-10-34-39-28-28.474 5.891-67.552 42.632-83.159 76.145a3.557 3.557 0 0 0 .766 4.055z"/><path fill="#FFF" d="M207.401 286.145c1.892.703 4.317.813 6.59-1.418a6.005 6.005 0 0 0 1.746-4.905c-.98-9.463-3.242-47.705 20.263-73.822 27-30 58-38 58-44s-25 1-23-5 24-9 30-2c0 0-3-10-17-8s-20 9-22 13c-1.933 3.867 9.682 5.397 24.912 2.785.246-.042.363.292.137.4-5.888 2.805-28.186 13.679-38.549 22.315-11.811 9.843-52.687 39.062-44.91 95.763.301 2.198 1.732 4.11 3.811 4.882z"/><circle cx="197" cy="171" r="5" fill="#FFF"/><path fill="#FFF" d="M214 129s0 6-1 6-1 2-2 3-1 4-1 6 0 7-1 8 0 27-9 28-11-5-11-7-2-4-4-3-3 7 3 13 15 3 19 0 5-13 5-25 1-12 1-15 2-11 1-14zM213 123s-1 3 0 3 1-2 0-3zM211.561 129.81s-.877 0-.438.44.877 0 .877 0 0-.44-.439-.44z"/><path fill="#FFF" d="M211.376 131.83s-.731.484-.123.608c.608.123.731-.485.731-.485s-.242-.366-.608-.123z"/><circle cx="199" cy="199" r="197" fill="none" stroke="#757575" stroke-miterlimit="10"/><circle cx="88" cy="78" r="3" fill="#757575"/><circle cx="123" cy="349" r="3" fill="#757575"/><circle cx="275" cy="349" r="3" fill="#757575"/><circle cx="310" cy="78" r="3" fill="#757575"/></svg>