<svg xmlns="http://www.w3.org/2000/svg" xml:space="preserve" width="610.05078" height="610.05402" viewBox="0 0 610.05078 610.054"><path d="M515.453 419.985c0-120.053-97.327-217.383-217.377-217.383-120.066 0-217.393 97.33-217.393 217.383 0 120.063 97.327 217.39 217.393 217.39 120.05 0 217.377-97.327 217.377-217.39z" style="fill:#fff;fill-opacity:1;fill-rule:nonzero;stroke:none" transform="matrix(1.33333 0 0 -1.33333 -92.398 865.011)"/><path d="M504.07 419.985c0-113.589-92.409-206-205.994-206-113.594 0-206.01 92.411-206.01 206 0 113.592 92.416 206.006 206.01 206.006 113.585 0 205.993-92.414 205.993-206.006M298.076 648.758C171.928 648.758 69.3 546.131 69.3 419.985c0-126.142 102.629-228.767 228.777-228.767 126.14 0 228.76 102.625 228.76 228.767 0 126.146-102.62 228.773-228.76 228.773z" style="fill:#0571b0;fill-opacity:1;fill-rule:nonzero;stroke:none" transform="matrix(1.33333 0 0 -1.33333 -92.398 865.011)"/><path d="M511.49 420.164c0-117.712-95.446-213.108-213.17-213.108-117.676 0-213.097 95.396-213.097 213.108 0 117.705 95.42 213.12 213.096 213.12 117.725 0 213.17-95.415 213.17-213.12z" style="fill:#fff;fill-opacity:1;fill-rule:nonzero;stroke:none" transform="matrix(1.33333 0 0 -1.33333 -92.398 865.011)"/><path d="M502.16 419.938c0-112.425-91.129-203.57-203.524-203.57-112.418 0-203.545 91.145-203.545 203.57 0 112.413 91.127 203.544 203.545 203.544 112.395 0 203.524-91.131 203.524-203.544z" style="fill:#e6f6f9;fill-opacity:1;fill-rule:nonzero;stroke:none" transform="matrix(1.33333 0 0 -1.33333 -92.398 865.011)"/><path d="M497.763 419.938c0-109.825-89.328-199.173-199.127-199.173-109.81 0-199.148 89.348-199.148 199.173 0 109.81 89.338 199.147 199.148 199.147 109.799 0 199.127-89.337 199.127-199.148M298.636 627.88c-114.66 0-207.942-93.282-207.942-207.941 0-114.674 93.283-207.968 207.942-207.968 114.648 0 207.922 93.294 207.922 207.968 0 114.659-93.274 207.94-207.922 207.94z" style="fill:red;fill-opacity:1;fill-rule:nonzero;stroke:none" transform="matrix(1.33333 0 0 -1.33333 -92.398 865.011)"/><path d="M431.616 286.164v22.048h-9.976v9.798h10.487v12.598H421.64v10.648h10.487v12.623h-11.013v10.049h11.013v12.18h-10.839v15.22l-11.467 11.463h-81.27l-14.48-14.476v-80.8l13.783-11.331h13.819l.701-9.84h11.722v10.32l10.268-.48V286.16l12.124.533.535 9.49h10.028V286.16l12.191.003.01 10.02h10.483l.533-10.19 21.348.17zM164.185 285.87h22.05v9.977h9.803v-10.479h12.587v10.479h10.656v-10.479H231.9v11.006h10.047v-11.006h12.179v10.83h15.226l11.459 11.462v81.277l-14.481 14.484h-80.796l-11.328-13.79v-13.818l-9.84-.699v-11.721h10.322l-.482-10.266h-10.023l.527-12.132 9.496-.535v-10.02h-10.023l.002-12.199 10.02-.002v-10.488l-10.194-.53.174-21.35zM164.521 553.813v-22.047h9.978v-9.797h-10.486v-12.594H174.5v-10.652h-10.486v-12.62h11.01v-10.048h-11.01v-12.183h10.84v-15.22l11.461-11.46h81.27l14.483 14.476v80.798l-13.786 11.326h-13.819l-.7 9.845h-11.72v-10.322l-10.268.477v10.027l-12.127-.532-.535-9.495H209.09v10.027l-12.194-.006-.007-10.02h-10.485l-.53 10.194-21.352-.174zM431.954 554.105h-22.05v-9.978h-9.797v10.484h-12.596v-10.484h-10.657v10.484h-12.613v-11.004h-10.049v11.004h-12.18v-10.83h-15.225l-11.46-11.462v-81.276l14.48-14.482h80.796l11.329 13.786v13.822l9.85.698v11.723H421.45l.483 10.261h10.029l-.535 12.132-9.494.535v10.022h10.029l-.007 12.191-10.023.007v10.488l10.196.529-.173 21.35z" style="fill:#0c479d;fill-opacity:1;fill-rule:nonzero;stroke:none" transform="matrix(1.33333 0 0 -1.33333 -92.398 865.011)"/><path d="m252.481 461.652 16.299-21.744 9.36 9.537-21.45 16.297z" style="fill:#ba4100;fill-opacity:1;fill-rule:nonzero;stroke:none" transform="matrix(1.33333 0 0 -1.33333 -92.398 865.011)"/><path d="M202.072 504.864c-.01-6.221 4.95-11.252 11.105-11.261 6.155-.006 11.134 5.008 11.14 11.227.007 6.195-4.963 11.232-11.109 11.24-6.152.01-11.122-5.01-11.136-11.206z" style="fill:#4dac26;fill-opacity:1;fill-rule:nonzero;stroke:none" transform="matrix(1.33333 0 0 -1.33333 -92.398 865.011)"/><path d="M220.893 502.344c-.012-6.19 4.955-11.237 11.107-11.243 6.155-.01 11.129 5.022 11.141 11.213.01 6.208-4.96 11.24-11.112 11.251-6.154.01-11.126-5.01-11.136-11.22z" style="fill:#4dac26;fill-opacity:1;fill-rule:nonzero;stroke:none" transform="matrix(1.33333 0 0 -1.33333 -92.398 865.011)"/><path d="M215.809 490.393c-.007-6.207 4.97-11.243 11.126-11.252 6.152-.01 11.138 5.015 11.152 11.221.002 6.217-4.964 11.239-11.116 11.243-6.158.01-11.158-5-11.162-11.212z" style="fill:#4dac26;fill-opacity:1;fill-rule:nonzero;stroke:none" transform="matrix(1.33333 0 0 -1.33333 -92.398 865.011)"/><path d="M204.896 485.852c-.007-6.202 4.986-11.24 11.14-11.246 6.118-.01 11.125 5.014 11.13 11.212.015 6.212-4.983 11.248-11.102 11.26-6.155.007-11.165-5.018-11.168-11.226zM233.64 487.611c-.01-10.337 8.32-18.728 18.552-18.745 10.238-.01 18.569 8.357 18.588 18.694.012 10.351-8.293 18.746-18.53 18.764-10.242.012-18.592-8.36-18.61-18.713z" style="fill:#4dac26;fill-opacity:1;fill-rule:nonzero;stroke:none" transform="matrix(1.33333 0 0 -1.33333 -92.398 865.011)"/><path d="M212.15 465.803c-.017-10.345 8.297-18.725 18.558-18.741 10.209-.017 18.566 8.344 18.578 18.687.017 10.34-8.316 18.754-18.53 18.767-10.258.01-18.594-8.37-18.606-18.713z" style="fill:#4dac26;fill-opacity:1;fill-rule:nonzero;stroke:none" transform="matrix(1.33333 0 0 -1.33333 -92.398 865.011)"/><path d="M218.968 491.266c-.002-3.862 3.084-6.99 6.904-6.995 3.858-.009 6.923 3.12 6.93 6.972.008 3.865-3.052 6.99-6.906 6.996-3.824.007-6.926-3.114-6.928-6.973zM224.019 467.976c-.012-3.864 3.082-6.983 6.897-6.994 3.83 0 6.93 3.117 6.94 6.972.002 3.872-3.092 6.997-6.916 7.003-3.82.006-6.919-3.11-6.921-6.981zM242.548 486.352c-.002-3.869 3.075-6.998 6.905-7.005 3.862-.003 6.923 3.118 6.928 6.987 0 3.855-3.048 6.98-6.904 6.989-3.83.003-6.921-3.117-6.929-6.97z" style="fill:red;fill-opacity:1;fill-rule:nonzero;stroke:none" transform="matrix(1.33333 0 0 -1.33333 -92.398 865.011)"/><path d="M258.639 467.83a8.04 8.04 0 0 0-8.04-8.037 8.033 8.033 0 0 0-8.032 8.037c0 4.438 3.594 8.04 8.033 8.04a8.041 8.041 0 0 0 8.039-8.04z" style="fill:#4dac26;fill-opacity:1;fill-rule:nonzero;stroke:none" transform="matrix(1.33333 0 0 -1.33333 -92.398 865.011)"/><path d="m256.438 373.74 21.747 16.296-9.54 9.37-16.291-21.456Z" style="fill:#ba4100;fill-opacity:1;fill-rule:nonzero;stroke:none" transform="matrix(1.33333 0 0 -1.33333 -92.398 865.011)"/><path d="M213.23 323.333c6.222-.009 11.254 4.953 11.259 11.103.014 6.152-5.008 11.128-11.225 11.14-6.191.008-11.233-4.959-11.238-11.114-.012-6.145 5.008-11.126 11.204-11.129z" style="fill:#4dac26;fill-opacity:1;fill-rule:nonzero;stroke:none" transform="matrix(1.33333 0 0 -1.33333 -92.398 865.011)"/><path d="M215.748 342.15c6.191-.01 11.24 4.954 11.247 11.107.005 6.154-5.025 11.134-11.213 11.143-6.213.01-11.242-4.955-11.252-11.112-.012-6.154 5.01-11.129 11.218-11.139z" style="fill:#4dac26;fill-opacity:1;fill-rule:nonzero;stroke:none" transform="matrix(1.33333 0 0 -1.33333 -92.398 865.011)"/><path d="M227.701 337.064c6.205-.005 11.242 4.975 11.252 11.132.012 6.15-5.017 11.131-11.22 11.143-6.215.01-11.24-4.962-11.248-11.11-.007-6.154 5.003-11.16 11.216-11.165z" style="fill:#4dac26;fill-opacity:1;fill-rule:nonzero;stroke:none" transform="matrix(1.33333 0 0 -1.33333 -92.398 865.011)"/><path d="M232.241 326.155c6.2-.014 11.242 4.982 11.25 11.139.004 6.118-5.01 11.129-11.214 11.134-6.214.005-11.246-4.982-11.254-11.103-.014-6.155 5.01-11.167 11.218-11.17zM230.487 354.9c10.33-.021 18.727 8.314 18.737 18.556.016 10.237-8.348 18.565-18.689 18.575-10.353.02-18.746-8.285-18.765-18.522-.013-10.237 8.362-18.599 18.717-18.609z" style="fill:#4dac26;fill-opacity:1;fill-rule:nonzero;stroke:none" transform="matrix(1.33333 0 0 -1.33333 -92.398 865.011)"/><path d="M252.292 333.414c10.347-.021 18.729 8.292 18.743 18.556.01 10.203-8.35 18.565-18.693 18.575-10.343.015-18.751-8.318-18.766-18.523-.016-10.265 8.375-18.598 18.716-18.608z" style="fill:#4dac26;fill-opacity:1;fill-rule:nonzero;stroke:none" transform="matrix(1.33333 0 0 -1.33333 -92.398 865.011)"/><path d="M226.826 340.227c3.861-.007 6.996 3.085 6.996 6.907.005 3.86-3.118 6.926-6.971 6.93-3.861.005-6.99-3.053-6.992-6.914-.007-3.817 3.114-6.92 6.967-6.923zM250.115 345.275c3.863-.01 6.989 3.085 6.989 6.9.009 3.829-3.106 6.929-6.97 6.94-3.863.002-6.99-3.087-6.993-6.924-.012-3.812 3.109-6.91 6.974-6.916zM231.735 363.808c3.88-.005 7.003 3.077 7.006 6.906.012 3.858-3.107 6.916-6.98 6.926-3.853.005-6.983-3.046-6.993-6.907-.002-3.827 3.119-6.919 6.967-6.925z" style="fill:red;fill-opacity:1;fill-rule:nonzero;stroke:none" transform="matrix(1.33333 0 0 -1.33333 -92.398 865.011)"/><path d="M250.262 379.893c4.44 0 8.04-3.595 8.04-8.032a8.04 8.04 0 0 0-8.04-8.037 8.036 8.036 0 0 0-8.034 8.037 8.031 8.031 0 0 0 8.034 8.032z" style="fill:#4dac26;fill-opacity:1;fill-rule:nonzero;stroke:none" transform="matrix(1.33333 0 0 -1.33333 -92.398 865.011)"/><path d="m344.24 377.996-16.299 21.752-9.364-9.543 21.455-16.296z" style="fill:#ba4100;fill-opacity:1;fill-rule:nonzero;stroke:none" transform="matrix(1.33333 0 0 -1.33333 -92.398 865.011)"/><path d="M394.642 334.79c.01 6.223-4.948 11.247-11.102 11.262-6.147.004-11.129-5.011-11.137-11.233-.007-6.196 4.952-11.227 11.106-11.235 6.157-.015 11.13 5.015 11.133 11.206z" style="fill:#4dac26;fill-opacity:1;fill-rule:nonzero;stroke:none" transform="matrix(1.33333 0 0 -1.33333 -92.398 865.011)"/><path d="M375.826 337.306c.01 6.196-4.958 11.237-11.1 11.249-6.158.008-11.141-5.025-11.146-11.215-.007-6.21 4.952-11.242 11.108-11.254 6.157-.01 11.128 5.015 11.138 11.22z" style="fill:#4dac26;fill-opacity:1;fill-rule:nonzero;stroke:none" transform="matrix(1.33333 0 0 -1.33333 -92.398 865.011)"/><path d="M380.91 349.257c.01 6.207-4.975 11.249-11.129 11.256-6.15.005-11.133-5.015-11.147-11.22-.003-6.216 4.964-11.235 11.11-11.25 6.163-.01 11.16 4.998 11.166 11.214z" style="fill:#4dac26;fill-opacity:1;fill-rule:nonzero;stroke:none" transform="matrix(1.33333 0 0 -1.33333 -92.398 865.011)"/><path d="M391.82 353.807c.01 6.197-4.974 11.239-11.132 11.24-6.127.014-11.135-5.014-11.137-11.217-.01-6.212 4.98-11.242 11.101-11.249 6.156-.007 11.163 5.013 11.168 11.226zM363.075 352.037c.017 10.336-8.311 18.734-18.544 18.75-10.247.01-18.573-8.36-18.587-18.692-.01-10.355 8.285-18.756 18.53-18.766 10.234-.017 18.59 8.356 18.601 18.708z" style="fill:#4dac26;fill-opacity:1;fill-rule:nonzero;stroke:none" transform="matrix(1.33333 0 0 -1.33333 -92.398 865.011)"/><path d="M384.568 373.847c.013 10.347-8.295 18.734-18.55 18.744-10.216.018-18.57-8.343-18.587-18.692-.02-10.337 8.318-18.748 18.529-18.762 10.259-.018 18.592 8.374 18.608 18.71z" style="fill:#4dac26;fill-opacity:1;fill-rule:nonzero;stroke:none" transform="matrix(1.33333 0 0 -1.33333 -92.398 865.011)"/><path d="M377.749 348.387c.01 3.857-3.085 6.99-6.904 6.99-3.86.01-6.924-3.113-6.929-6.969-.005-3.86 3.054-6.988 6.91-6.993 3.819-.005 6.92 3.113 6.923 6.972zM372.702 371.678c.005 3.863-3.084 6.983-6.896 6.988-3.837 0-6.936-3.11-6.94-6.969-.004-3.87 3.083-6.998 6.908-7.003 3.827-.01 6.928 3.114 6.928 6.984zM354.17 353.305c.006 3.865-3.08 6.994-6.901 6.998-3.859.005-6.928-3.114-6.931-6.984-.005-3.853 3.049-6.978 6.91-6.986 3.826-.007 6.91 3.113 6.923 6.972z" style="fill:red;fill-opacity:1;fill-rule:nonzero;stroke:none" transform="matrix(1.33333 0 0 -1.33333 -92.398 865.011)"/><path d="M338.08 371.82a8.039 8.039 0 0 0 8.034 8.036c4.44 0 8.04-3.594 8.04-8.036 0-4.44-3.6-8.037-8.04-8.037-4.428 0-8.034 3.598-8.034 8.037z" style="fill:#4dac26;fill-opacity:1;fill-rule:nonzero;stroke:none" transform="matrix(1.33333 0 0 -1.33333 -92.398 865.011)"/><path d="m339.543 465.749-21.757-16.295 9.544-9.365 16.3 21.452z" style="fill:#ba4100;fill-opacity:1;fill-rule:nonzero;stroke:none" transform="matrix(1.33333 0 0 -1.33333 -92.398 865.011)"/><path d="M383.49 516.319c-6.223.014-11.25-4.949-11.264-11.1-.008-6.152 5.007-11.131 11.227-11.142 6.198-.007 11.233 4.958 11.242 11.11.004 6.15-5.01 11.125-11.206 11.132z" style="fill:#4dac26;fill-opacity:1;fill-rule:nonzero;stroke:none" transform="matrix(1.33333 0 0 -1.33333 -92.398 865.011)"/><path d="M380.966 497.503c-6.189.01-11.23-4.954-11.242-11.107-.01-6.155 5.022-11.136 11.215-11.141 6.206-.006 11.24 4.952 11.252 11.11.005 6.154-5.017 11.13-11.225 11.138z" style="fill:#4dac26;fill-opacity:1;fill-rule:nonzero;stroke:none" transform="matrix(1.33333 0 0 -1.33333 -92.398 865.011)"/><path d="M369.018 502.586c-6.204.011-11.24-4.973-11.256-11.13-.013-6.15 5.016-11.134 11.224-11.144 6.215-.008 11.24 4.963 11.252 11.113.005 6.154-5.006 11.157-11.22 11.161z" style="fill:#4dac26;fill-opacity:1;fill-rule:nonzero;stroke:none" transform="matrix(1.33333 0 0 -1.33333 -92.398 865.011)"/><path d="M364.473 513.495c-6.2.014-11.235-4.98-11.238-11.137-.021-6.12 5.008-11.125 11.21-11.134 6.21-.003 11.248 4.984 11.253 11.103.01 6.157-5.01 11.163-11.225 11.168zM366.237 484.754c-10.34.017-18.732-8.317-18.747-18.552-.01-10.244 8.356-18.565 18.689-18.58 10.357-.017 18.756 8.284 18.773 18.527.01 10.236-8.362 18.589-18.715 18.605z" style="fill:#4dac26;fill-opacity:1;fill-rule:nonzero;stroke:none" transform="matrix(1.33333 0 0 -1.33333 -92.398 865.011)"/><path d="M344.428 506.243c-10.344.011-18.723-8.298-18.741-18.556-.018-10.209 8.342-18.566 18.688-18.579 10.34-.016 18.753 8.317 18.766 18.524.013 10.263-8.372 18.597-18.713 18.611z" style="fill:#4dac26;fill-opacity:1;fill-rule:nonzero;stroke:none" transform="matrix(1.33333 0 0 -1.33333 -92.398 865.011)"/><path d="M369.89 499.427c-3.856.007-6.989-3.082-6.994-6.908-.002-3.863 3.122-6.922 6.97-6.93 3.859-.004 6.988 3.05 7.001 6.91.002 3.82-3.116 6.924-6.976 6.928zM346.604 494.377c-3.864.006-6.987-3.08-6.994-6.9-.005-3.831 3.109-6.93 6.972-6.935 3.863-.008 6.996 3.087 6.998 6.915.005 3.817-3.111 6.914-6.976 6.92zM364.979 475.845c-3.877.006-7-3.074-7.005-6.904 0-3.86 3.116-6.921 6.983-6.93 3.854-.004 6.986 3.052 6.988 6.91.003 3.83-3.115 6.92-6.966 6.924z" style="fill:red;fill-opacity:1;fill-rule:nonzero;stroke:none" transform="matrix(1.33333 0 0 -1.33333 -92.398 865.011)"/><path d="M346.454 459.757a8.033 8.033 0 0 0-8.034 8.037 8.036 8.036 0 0 0 8.034 8.037 8.04 8.04 0 0 0 8.04-8.037c0-4.438-3.6-8.037-8.04-8.037z" style="fill:#4dac26;fill-opacity:1;fill-rule:nonzero;stroke:none" transform="matrix(1.33333 0 0 -1.33333 -92.398 865.011)"/><path d="M266.924 400.804h-80.347v37.824h80.347z" style="fill:#fff;fill-opacity:1;fill-rule:nonzero;stroke:none" transform="matrix(1.33333 0 0 -1.33333 -92.398 865.011)"/><path d="M186.577 438.628c16.402-9.355 62.917-7.971 80.301-6.923v-23.933c10.298-.356-62.584 4.95-80.301-6.968" style="fill:#53b8cf;fill-opacity:1;fill-rule:nonzero;stroke:none" transform="matrix(1.33333 0 0 -1.33333 -92.398 865.011)"/><path d="M329.698 438.73h80.348v-37.828h-80.348Z" style="fill:#fff;fill-opacity:1;fill-rule:nonzero;stroke:none" transform="matrix(1.33333 0 0 -1.33333 -92.398 865.011)"/><path d="M410.046 400.902c-16.397 9.355-62.919 7.972-80.297 6.928v23.927c-10.3.361 62.589-4.943 80.297 6.973" style="fill:#53b8cf;fill-opacity:1;fill-rule:nonzero;stroke:none" transform="matrix(1.33333 0 0 -1.33333 -92.398 865.011)"/><path d="M279.402 451.211v80.328h37.722V451.21z" style="fill:#fff;fill-opacity:1;fill-rule:nonzero;stroke:none" transform="matrix(1.33333 0 0 -1.33333 -92.398 865.011)"/><path d="M317.124 531.539c-9.33-16.393-7.95-62.9-6.91-80.274h-23.861c-.36-10.301 4.935 62.563-6.95 80.274" style="fill:#53b8cf;fill-opacity:1;fill-rule:nonzero;stroke:none" transform="matrix(1.33333 0 0 -1.33333 -92.398 865.011)"/><path d="M317.218 388.453v-80.318h-37.72v80.318z" style="fill:#fff;fill-opacity:1;fill-rule:nonzero;stroke:none" transform="matrix(1.33333 0 0 -1.33333 -92.398 865.011)"/><path d="M279.499 308.135c9.328 16.39 7.955 62.897 6.911 80.277h23.86c.35 10.29-4.928-62.57 6.948-80.277" style="fill:#53b8cf;fill-opacity:1;fill-rule:nonzero;stroke:none" transform="matrix(1.33333 0 0 -1.33333 -92.398 865.011)"/><path d="M263.514 555.429v-10.403h-8.025v10.403h-14.661v-10.403h-8.001v10.403H218.14v-10.403h-8v10.403h-14.689v-10.403h-7.995v10.403h-24.805v-24.793h10.415v-8.025h-10.415v-14.653h10.415v-8.012h-10.415V485.29h10.415v-8.033h-10.415v-14.666h10.415v-8.155l2.347.048.03 10.425h-10.327v10.02h10.29v12.674h-10.276v10.013h10.276v12.671h-10.276v9.991h10.276v12.684h-10.276v20.067h19.894v-10.376h12.78v10.376h10.02v-10.376h12.67v10.376h10.006v-10.376h12.681v10.376h9.984v-10.376h15.019l11.034-11.035h37.698l11.034 11.035h4.702v12.776h-69.139z" style="fill:#ffa816;fill-opacity:1;fill-rule:nonzero;stroke:none" transform="matrix(1.33333 0 0 -1.33333 -92.398 865.011)"/><path d="M284.056 555.451h-8.252V542.79l-.007-.028c.371-1.631 2.148-2.831 4.119-2.831 1.978 0 3.745 1.167 4.12 2.797l.02.062v12.661zM302.183 555.425h-8.189v-12.723c.374-1.632 2.123-2.771 4.094-2.771 1.974 0 3.758 1.233 4.134 2.859l-.04 12.635zM320.362 542.8v12.651h-8.14V542.79l.04-.075c.368-1.628 2.133-2.784 4.107-2.784 1.977 0 3.627 1.234 4.003 2.869h-.01z" style="fill:#53b8cf;fill-opacity:1;fill-rule:nonzero;stroke:none" transform="matrix(1.33333 0 0 -1.33333 -92.398 865.011)"/><path d="M433.501 530.632v24.8h-24.79V545.02h-8.035v10.413h-14.65V545.02h-8.01v10.413h-14.654V545.02h-8.032v10.413h-14.672V545.02l-7.988-.003-.043-2.37h10.354v10.323h10.013v-10.292h12.682v10.282h10.008v-10.282h12.673v10.282h9.994v-10.282h12.68v10.282h20.07v-19.897h-10.38v-12.78h10.38v-10.02h-10.38v-12.665h10.38v-10.013h-10.38v-12.676h10.38v-9.986h-10.38V449.9l-11.032-11.036v-37.692l11.038-11.034v-4.709H433.5v69.142h-10.408v8.029H433.5v14.657h-10.408v8.003H433.5v14.687h-10.408v8H433.5v14.684h-10.408v8.002H433.5z" style="fill:#ffa816;fill-opacity:1;fill-rule:nonzero;stroke:none" transform="matrix(1.33333 0 0 -1.33333 -92.398 865.011)"/><path d="M433.525 434.035v8.252h-12.667l-.026.002c-1.629-.375-2.834-2.147-2.834-4.122s1.174-3.743 2.8-4.118l.06-.014h12.667zM433.491 415.908v8.185h-12.719c-1.631-.373-2.774-2.119-2.774-4.098 0-1.974 1.23-3.759 2.86-4.135l12.633.048zM420.873 397.724h12.652v8.135h-12.667l-.072-.029c-1.63-.376-2.788-2.142-2.788-4.118 0-1.974 1.231-3.622 2.875-3.993v.005z" style="fill:#53b8cf;fill-opacity:1;fill-rule:nonzero;stroke:none" transform="matrix(1.33333 0 0 -1.33333 -92.398 865.011)"/><path d="M423.093 385.621h-2.366v-10.555h10.318v-10.018h-10.287V352.37h10.285v-10h-10.285v-12.675h10.285v-9.993h-10.285v-12.69h10.285v-20.06H411.14v10.374h-12.773v-10.374h-10.02v10.374h-12.666v-10.374h-10.018v10.374h-12.67v-10.374h-9.99v10.374h-15.02l-11.038 11.035h-37.692l-11.04-11.037h-4.699V284.55h69.14v10.401h8.027V284.55h14.66v10.401h8.002V284.55h14.68v10.401h8.003V284.55h14.689v10.401h8V284.55h24.807v24.793h-10.418v8.027h10.418v14.65h-10.418v8.017h10.418v14.657h-10.418v8.03h10.418v14.666h-10.418l-.011 8.232z" style="fill:#ffa816;fill-opacity:1;fill-rule:nonzero;stroke:none" transform="matrix(1.33333 0 0 -1.33333 -92.398 865.011)"/><path d="M275.812 284.549v12.626h8.114v-12.626h10.058v12.626h8.146v-12.626h10.027v12.626h8.14v-12.626h10.173v12.657h-2.478l-11.129 11.12-37.581.023-11.148-11.143h-2.338v-12.657h10.016z" style="fill:#ffa816;fill-opacity:1;fill-rule:nonzero;stroke:none" transform="matrix(1.33333 0 0 -1.33333 -92.398 865.011)"/><path d="M312.118 284.522h8.244v12.663l.013.028c-.379 1.637-2.154 2.834-4.128 2.834-1.976 0-3.74-1.166-4.111-2.798l-.018-.064v-12.663zM293.984 284.549l8.189.013v12.713c-.371 1.634-2.113 2.772-4.097 2.772-1.969 0-3.75-1.227-4.128-2.862l.036-12.636zM275.804 297.175v-12.653h8.14v12.663l-.033.074c-.378 1.636-2.145 2.788-4.116 2.788-1.974 0-3.627-1.236-3.993-2.872h.002z" style="fill:#53b8cf;fill-opacity:1;fill-rule:nonzero;stroke:none" transform="matrix(1.33333 0 0 -1.33333 -92.398 865.011)"/><path d="m263.55 294.95-.04 2.374H253.16v-10.322h-10.02v10.286h-12.673V287.01h-10.016v10.278h-12.666V287.01h-9.998v10.278h-12.686V287.01H165.04v19.898h10.374v12.775H165.04v10.022h10.374v12.666H165.04v10.01h10.374v12.68H165.04v9.986h10.374v15.02l11.035 11.036v37.687l-11.035 11.042v4.704h-12.77v-69.141h10.399v-8.025h-10.398v-14.664h10.398v-8h-10.398v-14.68h10.398v-8.007h-10.398v-14.681h10.398v-8.003h-10.398v-24.793h24.785v10.408h8.03v-10.408h14.651v10.408h8.009v-10.408h14.664v10.408h8.024v-10.408h14.671v10.408h8.071z" style="fill:#ffa816;fill-opacity:1;fill-rule:nonzero;stroke:none" transform="matrix(1.33333 0 0 -1.33333 -92.398 865.011)"/><path d="M162.645 442.236h12.62v-8.114h-12.62v-10.06h12.62v-8.144h-12.62v-10.025h12.62v-8.145h-12.62V387.57H175.3v2.486l11.119 11.13.017 37.578-11.136 11.149v2.342h-12.656v-10.019z" style="fill:#ffa816;fill-opacity:1;fill-rule:nonzero;stroke:none" transform="matrix(1.33333 0 0 -1.33333 -92.398 865.011)"/><path d="M162.618 405.927v-8.242h12.661l.027-.01c1.63.374 2.834 2.155 2.834 4.126 0 1.976-1.166 3.738-2.8 4.116l-.06.01h-12.662zM162.645 424.062v-8.187h12.721c1.634.373 2.774 2.12 2.774 4.092 0 1.976-1.232 3.758-2.86 4.133zM175.265 442.246h-12.647v-8.14h12.661l.068.03c1.633.374 2.793 2.143 2.793 4.11 0 1.982-1.234 3.629-2.875 4.002v-.002z" style="fill:#53b8cf;fill-opacity:1;fill-rule:nonzero;stroke:none" transform="matrix(1.33333 0 0 -1.33333 -92.398 865.011)"/><path d="M298.052 387.373c17.874 0 32.365 14.602 32.365 32.612 0 18.023-14.491 32.62-32.365 32.62-17.843 0-32.323-14.597-32.323-32.62 0-18.01 14.48-32.612 32.323-32.612z" style="fill:#fff;fill-opacity:1;fill-rule:nonzero;stroke:none" transform="matrix(1.33333 0 0 -1.33333 -92.398 865.011)"/><path d="M298.052 382.852c20.339 0 36.886 16.658 36.886 37.133 0 20.48-16.547 37.14-36.886 37.14-20.316 0-36.844-16.66-36.844-37.14 0-20.475 16.528-37.133 36.844-37.133m-27.802 37.133c0 15.494 12.472 28.099 27.802 28.099 15.353 0 27.844-12.605 27.844-28.099 0-15.489-12.49-28.09-27.844-28.09-15.33 0-27.802 12.601-27.802 28.09z" style="fill:#008837;fill-opacity:1;fill-rule:nonzero;stroke:none" transform="matrix(1.33333 0 0 -1.33333 -92.398 865.011)"/><path d="M293.878 403.09v34.038h-16.777V403.09z" style="fill:red;fill-opacity:1;fill-rule:nonzero;stroke:none" transform="matrix(1.33333 0 0 -1.33333 -92.398 865.011)"/><path d="M319.17 403.09v34.093h-16.79V403.09z" style="fill:#0c479d;fill-opacity:1;fill-rule:nonzero;stroke:none" transform="matrix(1.33333 0 0 -1.33333 -92.398 865.011)"/><path d="M313.28 410.012c-6.812 2.71-14.874.064-14.874.064-7.425 2.41-14.948-.021-14.948-.021v19.622s7.437 2.622 14.848.193c0 0 8.128 2.546 15.006-.215l-.032-19.643z" style="fill:#ff0;fill-opacity:1;fill-rule:nonzero;stroke:none" transform="matrix(1.33333 0 0 -1.33333 -92.398 865.011)"/><path d="M313.557 410.706c-6.985 2.78-15.044.191-15.384.08l.464.001c-7.568 2.457-15.092.081-15.409-.021l.978-.711v19.622l-.5-.705c.072.026 7.297 2.505 14.367.188l.227-.075.23.072c.077.024 7.962 2.43 14.503-.196l-.469.695-.03-19.643 1.023.693m.033 19.643c-7.044 2.827-15.166.341-15.508.235l.457-.003c-7.566 2.479-15.016-.088-15.33-.199l-.499-.176v-21.179l.978.317c.073.023 7.392 2.325 14.487.021l.233-.075.231.076c.078.026 7.893 2.527 14.365-.049l1.022-.407.001 1.1.032 19.644v.506l-.47.19z" style="fill:#008837;fill-opacity:1;fill-rule:nonzero;stroke:none" transform="matrix(1.33333 0 0 -1.33333 -92.398 865.011)"/><path d="M312.106 411.238c-7.032 2.345-13.851-.178-13.851-.178-7.833 2.417-13.602.37-13.602.37v17.56s5.77 2.326 13.602-.077c0 0 7.234 2.346 13.714.245l.137-17.92z" style="fill:#ff0;fill-opacity:1;fill-rule:nonzero;stroke:none" transform="matrix(1.33333 0 0 -1.33333 -92.398 865.011)"/><path d="M312.166 411.417c-7.014 2.339-13.908-.155-13.977-.18l.122.003c-7.803 2.408-13.663.389-13.72.369l.251-.178v17.56l-.118-.176c.057.023 5.804 2.271 13.476-.082l.056-.018.057.019c.072.023 7.253 2.302 13.597.244l-.13.178.138-17.919.248.18m-.139 17.92c-6.463 2.097-13.758-.22-13.83-.244h.113c-7.806 2.395-13.669.096-13.728.073l-.118-.048v-17.955l.252.09c.057.02 5.807 1.995 13.483-.374l.061-.019.06.023c.068.024 6.842 2.472 13.727.177l.25-.084-.002.263-.138 17.92v.137l-.13.042z" style="fill:#008837;fill-opacity:1;fill-rule:nonzero;stroke:none" transform="matrix(1.33333 0 0 -1.33333 -92.398 865.011)"/><path d="M298.171 428.913V411.11h.378v17.803z" style="fill:#008837;fill-opacity:1;fill-rule:nonzero;stroke:none" transform="matrix(1.33333 0 0 -1.33333 -92.398 865.011)"/><path d="M233.436 258.183c0-2.057.477-3.71 1.431-4.96.954-1.25 2.007-2.09 3.159-2.517.082-.017.123-.045.123-.086a.156.156 0 0 0-.05-.111l-1.554-1.728c-.757.247-1.587.761-2.492 1.542-.906.782-1.555 1.625-1.95 2.53-.05.1-.11.144-.185.136-.074-.009-.127-.054-.16-.136-.346-.89-.975-1.715-1.888-2.48-.913-.765-1.756-1.288-2.53-1.567l-1.554 1.727a.115.115 0 0 0-.037.11c.008.042.045.07.11.088 1.169.428 2.226 1.266 3.172 2.516.946 1.25 1.419 2.904 1.419 4.961v3.232c0 .247-.046.477-.136.692-.09.213-.308.32-.654.32h-.69v1.406h4.466v-5.675m10.044-.815v5.307c0 .28-.07.517-.21.715-.14.197-.4.297-.778.297h-.271v1.233h4.022v-22.702h-2.763v12.93h-1.925v-12.93h-2.764v20.457c0 .28-.07.517-.21.715-.14.197-.4.297-.777.297h-.272v1.233h4.023v-7.552zM264.484 260.33v2.345c0 .28-.07.517-.21.715-.14.197-.399.297-.777.297h-.271v1.233h4.046v-22.702h-2.788v11.82h-2.344a6.104 6.104 0 0 0-2.11-2.037 5.616 5.616 0 0 0-2.9-.777c-1.612 0-2.994.576-4.146 1.728-1.151 1.15-1.727 2.549-1.727 4.195 0 1.645.576 3.047 1.727 4.207 1.152 1.16 2.534 1.74 4.146 1.74a5.638 5.638 0 0 0 2.875-.765 5.862 5.862 0 0 0 2.085-1.999h2.394m-5.22-.556c-.567.716-1.278 1.075-2.134 1.075-.855 0-1.567-.359-2.134-1.075-.568-.714-.851-1.591-.851-2.627 0-1.037.283-1.913.85-2.628.568-.716 1.28-1.074 2.135-1.074.856 0 1.567.358 2.135 1.074.567.715.851 1.591.851 2.628 0 1.036-.284 1.913-.851 2.627m3.64-1.542c.032-.165.057-.34.073-.53.017-.19.025-.375.025-.555 0-.166-.004-.334-.012-.506a3.375 3.375 0 0 0-.061-.505h1.554v2.096h-1.58m5.775-16.014v20.457c0 .28-.07.517-.21.715-.14.197-.399.297-.777.297h-.271v1.233h4.047v-22.702zM275.528 249.487v2.221h21.74v-2.22h-9.303v-7.28h-3.109v7.28h-9.328m2.961 8.216c0 .28-.082.519-.246.716-.165.197-.411.296-.74.296h-.248v1.234h14.387v2.024h-14.016v2.196h16.83c.082 0 .143-.02.184-.062.041-.04.062-.103.062-.185v-5.626a.506.506 0 0 0-.111-.333c-.074-.09-.202-.136-.383-.136h-12.634v-2.048h13.375v-2.246h-14.486c-.723 0-1.234.153-1.53.457-.296.304-.444.834-.444 1.592v2.121zM308.19 261.983c0-2.698.665-4.515 1.998-5.453 1.333-.938 2.55-1.457 3.653-1.554.082-.018.123-.046.123-.087a.15.15 0 0 0-.05-.11l-1.53-1.68c-.97.083-2.044.47-3.22 1.16-1.177.691-1.954 1.531-2.332 2.517-.033.1-.095.149-.185.149s-.152-.049-.185-.149c-.362-.986-1.123-1.83-2.282-2.529-1.16-.7-2.25-1.082-3.27-1.147l-1.53 1.678c-.033.033-.046.07-.037.11.008.042.045.07.111.088 1.118.115 2.34.636 3.664 1.566 1.324.93 1.987 2.743 1.987 5.441v.099c0 .263-.086.497-.26.703-.172.206-.43.309-.777.309h-.444v1.21h4.565v-2.32m-3.627-17.718c0-.757.148-1.288.444-1.592.296-.304.806-.456 1.53-.456h13.178v2.17h-11.87c-.082 0-.145.017-.186.05-.04.034-.061.082-.061.149v1.283h11.377c.18 0 .307.045.382.135.074.09.11.201.11.334v4.861c0 .131-.041.25-.123.358-.082.106-.205.16-.37.16h-15.398v-2.147h12.881v-1.58h-13.128v-1.233h.247c.328 0 .575-.099.74-.296.165-.197.247-.436.247-.716v-1.48m14.905 15.965v4.689h-4.443v-1.234h.495c.329 0 .575-.115.74-.345a1.22 1.22 0 0 0 .247-.716v-9.92h2.96v5.059h3.209v2.467zM327.366 257.147c0 .28-.083.518-.247.715-.165.198-.411.297-.74.297h-.247v1.283h6.194v1.998h-5.824v2.197h8.588c.065 0 .111-.02.136-.062a.372.372 0 0 0 .037-.185v-5.65a.51.51 0 0 0-.112-.335c-.074-.09-.2-.134-.381-.134h-4.443v-1.926h6.17V253.1h-7.157c-.724 0-1.234.151-1.53.456-.296.304-.444.836-.444 1.591v2m3.084-8.637c0 .28-.082.518-.246.716-.165.197-.411.295-.74.295h-.494v1.234h15.941a.497.497 0 0 0 .346-.111c.082-.075.123-.194.123-.358v-5.947c0-.657-.193-1.176-.58-1.555-.387-.377-.884-.566-1.492-.566h-10.785c-.608 0-1.106.19-1.493.566-.386.38-.58.898-.58 1.555v4.17m11.895.125h-8.736v-3.924c0-.182.029-.288.086-.321.058-.033.16-.05.309-.05h7.946c.148 0 .251.03.309.087.057.057.086.16.086.308v3.9m-3.899 14.04c0 .28-.066.518-.198.716-.132.197-.387.297-.765.297h-.271v1.233h3.973v-13.153h-2.739v5.775h-2.443v2.22h2.443v2.913m4.17-10.908v10.908c0 .28-.07.517-.21.715-.14.197-.398.297-.777.297h-.272v1.233h4.023v-13.153zM357.794 261.983c0-2.632.666-4.413 1.998-5.342 1.333-.93 2.55-1.444 3.652-1.542.082-.017.124-.045.124-.086a.154.154 0 0 0-.05-.112l-1.53-1.677c-.97.082-2.044.476-3.22 1.183-1.176.707-1.954 1.555-2.331 2.542-.034.099-.095.149-.186.149-.09 0-.152-.05-.185-.149-.362-.987-1.123-1.839-2.283-2.553-1.16-.717-2.25-1.108-3.27-1.172l-1.53 1.677a.119.119 0 0 0-.037.112c.01.04.046.069.112.086 1.119.115 2.34.641 3.665 1.579 1.324.937 1.986 2.706 1.986 5.305v.099c0 .263-.087.497-.26.703-.173.206-.431.309-.776.309h-.444v1.21h4.565v-2.32m-1.481-14.955c0-1.464.576-2.718 1.727-3.762 1.151-1.045 2.542-1.568 4.171-1.568 1.628 0 3.019.523 4.17 1.568 1.151 1.044 1.727 2.298 1.727 3.762s-.576 2.718-1.727 3.763c-1.151 1.045-2.542 1.567-4.17 1.567-1.629 0-3.02-.522-4.17-1.567-1.152-1.045-1.728-2.299-1.728-3.763m8.81 0c0-.905-.284-1.653-.851-2.246-.569-.592-1.255-.888-2.061-.888-.807 0-1.49.296-2.049.888-.56.593-.839 1.341-.839 2.246s.28 1.654.84 2.245c.559.592 1.241.89 2.048.89.806 0 1.492-.298 2.06-.89.568-.591.852-1.34.852-2.245m1.233 12.832h-5.182v-2.245h5.182v-5.43h2.961v12.734h-4.441v-1.234h.493c.33 0 .576-.115.74-.345a1.22 1.22 0 0 0 .247-.716z" style="fill:#000;fill-opacity:1;fill-rule:nonzero;stroke:none" transform="matrix(1.33333 0 0 -1.33333 -92.398 865.011)"/></svg>