<svg xmlns="http://www.w3.org/2000/svg" width="400" height="399.853" viewBox="0 0 105.83333 105.79444"><path fill="#f8d207" d="M52.702 1.959c-11.042.743-25.183 5.515-34.35 12.983C7.025 26.949.84 37.658 0 52.23v3.54l3.528 3.968c1.876 20.279 12.95 35.523 32.414 41.894 15.962 5.237 31.55 3.882 45.282-5.709 10.945-8.338 19.323-19.056 21.937-31.56.637-3.078 2.871-10.116 2.624-10.363l-.177-3.433-2.23-6.113c-.672-11.29-6.107-19.48-14.99-28.328C75.577 5.696 67.842.88 52.701 1.959z"/><path fill="#0b3c8b" d="M53.724.028c-.566-.071-2.654 0-4.601.141-11.042.744-21.306 4.92-30.472 12.387C8.423 20.908 1.026 35.348.212 48.55L0 52.229l1.982-1.131 2.017-1.133 1.77 1.097c.99.601 1.84 1.097 1.911 1.097.07 0 .212-1.274.354-2.831 1.84-22.226 19.571-39.71 41.761-41.302l3.15-.212-.212 1.911a32.551 32.551 0 0 0-.248 3.575c0 2.052-.566 2.194-1.698.424-.991-1.557-1.24-1.416-.709.318.213.708.32 1.416.178 1.523-.106.141-1.133-.531-2.266-1.487-3.397-2.902-3.539-2.902-1.203-.036 1.239 1.487 2.16 2.832 2.053 2.938-.106.107-.779.035-1.522-.177-1.77-.495-1.876-.283-.354.672 2.3 1.38 1.77 1.664-3.893 1.947-2.831.142-5.096.319-5.025.39.07.07 2.335.247 5.025.46 2.69.176 4.99.424 5.097.566.141.142-.32.707-.992 1.274-1.31 1.132-1.309 1.133 1.168.46 1.027-.318.673.425-1.344 2.831-1.062 1.239-1.947 2.407-1.947 2.513 0 .142.92-.53 2.053-1.486 3.574-3.009 3.397-2.938 3.185-1.522a42.936 42.936 0 0 1-.46 1.946c-.142.39.248.036.885-.814.637-.849 1.274-1.415 1.45-1.238.142.141.39 2.442.532 5.06.283 5.38.601 5.026.99-1.026.106-2.23.32-4.14.425-4.247.107-.106.425.107.743.496.283.39.814 1.097 1.204 1.593l.672.884-.53-1.77c-.284-.955-.425-1.804-.354-1.875.07-.106 1.45.92 3.078 2.265l2.938 2.442-1.38-1.77c-.779-.99-1.876-2.3-2.442-2.972-.531-.637-.92-1.24-.85-1.346.107-.07.779 0 1.522.213.743.212 1.38.318 1.451.248.07-.071-.424-.496-1.132-.956-.673-.46-1.24-.955-1.24-1.062 0-.353 2.018-.672 4.567-.708 1.274-.035 3.22-.141 4.282-.283 1.663-.212 1.168-.283-3.292-.53-2.866-.178-5.309-.425-5.415-.602-.07-.177.532-.814 1.346-1.416 1.167-.85 1.309-1.062.636-.885-.495.142-1.344.319-1.946.46-1.239.248-1.274.354 1.663-3.114.956-1.097 1.699-2.123 1.699-2.23 0-.14-1.132.708-2.548 1.912-2.23 1.875-3.115 2.442-3.115 1.982 0-.071.248-.78.531-1.593.602-1.77.283-1.876-.814-.213-.425.673-.92 1.24-1.097 1.24-.283 0-.743-3.61-.743-5.946 0-1.098.035-1.133 1.522-1.133 2.017 0 7.29.885 10.511 1.77 3.68 1.026 10.617 4.459 13.98 6.972 3.786 2.83 9.13 8.529 11.43 12.245 3.363 5.38 5.664 11.785 6.513 18.014l.425 3.115 1.875 1.238c1.027.673 2.017 1.239 2.194 1.239.177 0 1.098-.425 1.982-.99l1.629-.956-.142-2.832c-.672-11.29-6.406-23.358-15.29-32.206C81.365 6.681 69.155.983 57.653.276a602.7 602.7 0 0 0-3.928-.248zm.177 15.754c.568.1 1.115.331 1.592.703 3.327 2.619 1.7 7.36-2.548 7.36-1.592 0-2.725-.707-3.468-2.123-.672-1.31-.672-2.264 0-3.68.823-1.699 2.72-2.562 4.424-2.26zM36.5 29.145a4.566 4.566 0 0 0-2.277.682c-1.875 1.132-2.619 2.407-2.619 4.388 0 3.292 2.336 5.486 5.522 5.097 1.982-.212 3.468-1.31 4.176-3.115 1.437-3.565-1.518-7.13-4.802-7.052zm33.981.007a4.769 4.769 0 0 0-2.707.71c-2.406 1.487-3.256 4.672-1.84 6.972 2.584 4.247 8.954 2.796 9.45-2.123.291-3.052-2.184-5.448-4.903-5.56zM57.664 40.044a94.58 94.58 0 0 0-11.266.117c-8.388.567-17.802 2.655-24.632 5.486-3.575 1.451-7.893 3.716-7.787 4.07.071.106.85.885 1.806 1.664l1.663 1.45 2.583-1.38c4.814-2.619 8.6-3.539 10.688-2.69 1.558.673 2.655 2.832 2.903 5.911l.212 2.017-1.734.283c-2.796.46-7.22.283-9.697-.354-2.938-.743-6.796-2.583-8.954-4.247l-1.735-1.31-1.238.957-1.24.92 1.558 1.593c.814.884 2.867 2.654 4.53 3.928a303.043 303.043 0 0 1 3.327 2.583c.141.142-.424 1.275-1.31 2.513-1.698 2.407-4.494 7.538-4.494 8.317 0 1.132-.743.247-1.699-2.088-1.274-3.08-2.336-7.15-2.937-11.184l-.425-2.937-1.876-1.275L4 53.115l-1.983 1.344L0 55.77l.248 2.478c1.876 20.279 16.527 38.505 35.993 44.876 15.961 5.238 33.338 2.69 47.07-6.902 4.106-2.866 10.617-9.485 13.342-13.59 3.858-5.769 6.725-12.493 7.999-18.864.637-3.079 1.38-9.52 1.132-9.767-.106-.071-.955.318-1.91.92l-1.735 1.061-1.876-1.203c-1.061-.673-2.052-1.203-2.194-1.203-.141 0-.283.92-.283 2.088 0 4.211-1.522 10.653-3.61 15.253l-1.026 2.3-2.23-4.6c-1.203-2.548-2.654-5.308-3.185-6.122-.53-.85-.92-1.593-.85-1.629 1.24-.885 5.875-4.883 7.29-6.334l1.912-1.947-1.274-.956-1.238-.956-1.523 1.31c-1.84 1.557-6.44 3.822-9.13 4.46-2.017.46-8.565.566-9.945.141-.708-.248-.744-.425-.602-2.902.212-3.008.85-4.176 2.867-5.167 1.239-.637 1.486-.637 4.07-.107 1.628.319 3.964 1.169 5.875 2.16 1.734.884 3.185 1.557 3.185 1.486.035-.035.637-.743 1.415-1.557l1.381-1.487-3.504-1.734c-8.308-4.167-18.865-6.682-30-7.231zm-.543 5.745c1.77 0 3.575.955 4.247 2.194.248.46.425 1.557.39 2.477-.071 3.009-2.407 6.512-6.37 9.485l-2.301 1.77-.991-.637c-3.787-2.407-7.114-6.406-7.786-9.45-.779-3.503 1.345-6.017 4.813-5.733 1.486.141 1.947.354 2.796 1.345l.991 1.203 1.345-1.31c1.132-1.132 1.557-1.344 2.866-1.344zm22 3.216c-.534.022-1.048.234-1.72.641-1.487.885-2.16 2.831-1.558 4.318.885 2.088 3.15 3.008 5.061 2.053 2.69-1.38 2.726-5.238.071-6.512-.76-.354-1.318-.523-1.853-.5zm-52.413.354a3.859 3.859 0 0 0-1.828.429c-1.097.53-2.265 2.83-1.982 3.928.814 3.256 5.309 4.07 6.76 1.24 1.437-2.733-.419-5.535-2.95-5.597zm14.988 4.623c.34-.018.526.159.667.513.637 1.628-1.84 4.07-5.698 5.663-3.079 1.274-3.185 1.203-3.008-1.204.07-1.097.248-2.123.39-2.23.105-.106 1.238-.495 2.512-.813 1.274-.354 2.867-.92 3.54-1.275.76-.424 1.256-.637 1.597-.654zm22.57.008c.376.045.995.292 2.234.788 1.133.46 2.938 1.026 3.964 1.274 1.77.39 1.84.46 1.84 1.593 0 .637.107 1.663.248 2.3.213 1.132.177 1.168-.814.92-1.84-.46-5.273-2.194-6.618-3.397-1.734-1.522-2.195-2.371-1.628-3.044.265-.318.398-.478.774-.434zm8.498 7.512c.142-.177 2.195.142 5.415.779.531.07.956.708 1.487 2.052 1.77 4.601 3.61 14.759 3.61 19.82 0 4.07-1.487 3.362-4.778-2.23-.85-1.45-1.982-3.751-2.477-5.167l-.956-2.548-2.584 1.734c-1.45.956-2.548 1.946-2.477 2.159.389 1.203 3.716 14.015 3.716 14.333 0 .213-.496.673-1.097.992-1.38.707-1.204.92-3.398-4.885-.92-2.477-1.77-4.53-1.91-4.53-.107 0-.532 1.168-.992 2.548-.955 3.15-3.114 8.671-3.751 9.698-.425.672-2.832 1.486-3.22 1.097-.072-.071.247-1.274.742-2.69 1.947-5.804 3.646-14.688 3.115-16.67-.106-.353-.885-.92-1.805-1.273-2.513-.92-5.026-2.655-6.795-4.637L52.98 70.28l-.744 1.168c-1.132 1.735-3.538 3.54-6.618 4.99l-2.795 1.31.247 2.513c.318 3.291 1.77 9.838 3.08 13.802.566 1.734.955 3.22.849 3.327-.638.637-10.405-2.194-14.228-4.14-3.787-1.947-3.822-1.098.107-8.707 1.91-3.68 3.29-6.724 3.079-6.795-.213-.071-1.416-.814-2.655-1.663l-2.3-1.558-.637 1.84c-.956 2.761-3.929 8.353-5.309 9.946l-1.203 1.415-.036-3.008c0-5.38 1.876-19.04 2.937-21.2.354-.672.886-.955 2.69-1.309 1.24-.283 2.443-.53 2.655-.637 1.239-.495 1.38-.248 1.132 2.194-.141 1.31-.46 3.504-.779 4.85l-.495 2.476.956.779c4.247 3.433 12.847 2.088 18.014-2.796l1.876-1.77 2.406 1.876c3.009 2.3 6.689 4.106 9.096 4.389 2.335.318 5.521-.284 7.857-1.416.99-.496 1.91-.884 2.017-.884.106 0 .318.566.46 1.238.106.672.425 1.239.672 1.239.602 0 2.903-2.584 3.61-4.07.602-1.239.425-2.3-.353-2.3-.248 0-1.345.849-2.372 1.84l-1.91 1.875-.461-1.946c-.637-2.796-1.274-7.432-1.062-7.645zm-7.007 4.46c.885 0 1.557.283 2.123.884 1.274 1.239 1.31 3.009.071 4.318-1.026 1.133-3.185 1.097-4.318-.07-1.91-1.877-.566-5.132 2.124-5.132zm-25.116.132c.56.118 1.12.407 1.616.894 1.38 1.415 1.38 2.902 0 4.318-1.168 1.132-2.052 1.274-3.539.495-1.132-.566-1.45-1.168-1.45-2.796 0-2.07 1.69-3.264 3.373-2.911zm-12.876 1.683c-.29-.026-.487.14-.62.485-.142.283-.142.885 0 1.345.212.814 3.256 4.495 3.752 4.495.141 0 .424-.602.601-1.345.354-1.345.319-1.416-1.38-3.185-1.128-1.173-1.87-1.75-2.353-1.795zm59.687 3.83c.274.247.832 1.274 1.84 3.238l1.38 2.69-1.132 1.663c-.637.885-1.239 1.628-1.345 1.628-.106 0-.318-1.31-.46-2.937a169.385 169.385 0 0 0-.425-4.85c-.124-1.15-.132-1.68.142-1.433z"/></svg>